<svg xmlns="http://www.w3.org/2000/svg" width="20" height="51" viewBox="0 0 20 51">
  <g fill="currentColor" fill-rule="evenodd" transform="translate(-1 -1)">
    <g transform="translate(4 37)">
      <path d="M11.820592,8.667874 L11.459938,8.239611 C11.260634,8.002231 10.93757,8.002231 10.738266,8.239611 L6.986518,12.642812 L3.225166,8.172566 C3.02596,7.935186 2.702798,7.935186 2.503592,8.172566 L2.14284,8.600829 C1.943802,8.838209 1.943802,9.221592 2.14284,9.458433 L6.621314,14.78141 C6.820352,15.018251 7.14343,15.018251 7.342636,14.78141 L11.820592,9.525478 C12.020148,9.288637 12.020148,8.904715 11.820592,8.667874 Z"/>
      <path d="M11.820592,2.667896 L11.459938,2.239633 C11.260634,2.002253 10.93757,2.002253 10.738266,2.239633 L6.986518,6.642834 L3.225166,2.172588 C3.02596,1.935208 2.702798,1.935208 2.503592,2.172588 L2.14284,2.600851 C1.943802,2.838231 1.943802,3.221614 2.14284,3.458455 L6.621314,8.781432 C6.820352,9.018273 7.14343,9.018273 7.342636,8.781432 L11.820592,3.5255 C12.020148,3.288659 12.020148,2.905276 11.820592,2.667896 Z" opacity=".44"/>
    </g>
    <g fill-rule="nonzero" transform="translate(1 1)">
      <path d="M10,2.000065 C5.58179944,2.000065 2.000032,5.58182156 2.000032,9.999824 L2.000032,20.999978 C2.000032,25.4183387 5.58159667,28.99977 10,28.99977 C14.4184033,28.99977 17.999968,25.4183387 17.999968,20.999978 L17.999968,9.999824 C17.999968,5.58182156 14.4182006,2.000065 10,2.000065 Z M10,6.50000002e-05 C15.522858,6.50000002e-05 19.999968,4.47734 19.999968,9.999824 L19.999968,20.999978 C19.999968,26.523023 15.522858,30.99977 10,30.99977 C4.477142,30.99977 3.2e-05,26.523023 3.2e-05,20.999978 L3.2e-05,9.999824 C3.2e-05,4.47734 4.477142,6.50000002e-05 10,6.50000002e-05 Z"/>
      <path d="M10,7.292214 C10.2474971,7.292214 10.461486,7.08181183 10.461486,6.804646 C10.461486,6.5271522 10.2471758,6.316538 10,6.316538 C9.75273388,6.316538 9.53843,6.52715337 9.53843,6.804646 C9.53843,7.08181067 9.75241254,7.292214 10,7.292214 Z M10,5.292214 C10.849636,5.292214 11.53843,5.969752 11.53843,6.804646 C11.53843,7.63954 10.849636,8.316538 10,8.316538 C9.150274,8.316538 8.461486,7.63954 8.461486,6.804646 C8.461486,5.969752 9.150274,5.292214 10,5.292214 Z"/>
    </g>
  </g>
</svg>
