<?xml version="1.0" encoding="utf-8"?>
<!-- Generator: Adobe Illustrator 22.0.1, SVG Export Plug-In . SVG Version: 6.00 Build 0)  -->
<svg version="1.1" id="BGs" xmlns="http://www.w3.org/2000/svg" xmlns:xlink="http://www.w3.org/1999/xlink" x="0px" y="0px"
	 viewBox="0 0 800 84" style="enable-background:new 0 0 800 84;" xml:space="preserve">
<style type="text/css">
	.st0{fill:#009200;}
	.st1{fill:#293335;}
</style>
<title>JG-logo-horiz</title>
<metadata><?xpacket begin="﻿" id="W5M0MpCehiHzreSzNTczkc9d"?>
<x:xmpmeta xmlns:x="adobe:ns:meta/" x:xmptk="Adobe XMP Core 5.6-c143 79.161210, 2017/08/11-10:28:36        ">
   <rdf:RDF xmlns:rdf="http://www.w3.org/1999/02/22-rdf-syntax-ns#">
      <rdf:Description rdf:about=""
            xmlns:dc="http://purl.org/dc/elements/1.1/">
         <dc:title>
            <rdf:Alt>
               <rdf:li xml:lang="x-default">JG-logo-horiz</rdf:li>
            </rdf:Alt>
         </dc:title>
      </rdf:Description>
   </rdf:RDF>
</x:xmpmeta>
                                                                                                    
                                                                                                    
                                                                                                    
                                                                                                    
                                                                                                    
                                                                                                    
                                                                                                    
                                                                                                    
                                                                                                    
                                                                                                    
                                                                                                    
                                                                                                    
                                                                                                    
                                                                                                    
                                                                                                    
                                                                                                    
                                                                                                    
                                                                                                    
                                                                                                    
                                                                                                    
                           
<?xpacket end="w"?></metadata>
<rect x="400.7" class="st0" width="5.4" height="84"/>
<path class="st1" d="M428.6,52.2h11.9c6,0,9.3,4.1,9.3,8.9s-3.4,8.9-9.3,8.9h-8.2v11.7h-3.7V52.2z M440.1,55.5h-7.8v11.2h7.8
	c3.5,0,5.9-2.3,5.9-5.6S443.6,55.5,440.1,55.5z"/>
<path class="st1" d="M481.1,68.2h-17.3v13.6H460V52.2h3.7v12.7H481V52.2h3.7v29.5H481L481.1,68.2z"/>
<path class="st1" d="M509.3,51.7c8.8,0,14.7,6.6,14.7,15.3s-6,15.3-14.7,15.3s-14.7-6.6-14.7-15.3S500.5,51.7,509.3,51.7z M509.3,55
	c-6.7,0-10.9,5.1-10.9,12s4.2,12,10.9,12s10.9-5.1,10.9-12S515.9,55,509.3,55L509.3,55z"/>
<path class="st1" d="M539.4,55.5H530v-3.3h22.5v3.3h-9.4v26.3h-3.7L539.4,55.5z"/>
<path class="st1" d="M572.3,51.7c8.8,0,14.7,6.6,14.7,15.3s-6,15.3-14.7,15.3s-14.7-6.6-14.7-15.3S563.5,51.7,572.3,51.7z M572.3,55
	c-6.7,0-10.9,5.1-10.9,12s4.2,12,10.9,12s10.9-5.1,10.9-12S578.9,55,572.3,55L572.3,55z"/>
<path class="st1" d="M612.5,51.7c4.5-0.1,8.8,2,11.5,5.5L621,59c-2.1-2.6-5.3-4-8.6-4c-6.5,0-11.4,5-11.4,12s4.9,12,11.4,12
	c3,0,5.8-1.2,8-3.2v-6h-10.2v-3.3h13.9v10.7c-3,3.3-7.2,5.1-11.6,5.1c-8.2,0.3-15-6.2-15.3-14.4c0-0.3,0-0.6,0-0.9
	C597.2,57.8,604,51.7,612.5,51.7z"/>
<path class="st1" d="M646.5,70h-5.9v11.7h-3.7V52.2h11.9c5.4,0,9.3,3.5,9.3,8.9c0.2,4.5-3.2,8.3-7.7,8.6l8,12h-4.3L646.5,70z
	 M648.4,55.5h-7.8v11.3h7.8c3.1,0.2,5.7-2.1,5.9-5.2c0-0.2,0-0.3,0-0.5C654.3,57.8,651.9,55.5,648.4,55.5L648.4,55.5z"/>
<path class="st1" d="M690.3,75.2h-15l-2.6,6.6h-4.1l11.9-29.5h4.6L697,81.7h-4.1L690.3,75.2z M676.4,71.9h12.8l-6.4-16.4L676.4,71.9
	z"/>
<path class="st1" d="M707.4,52.2h11.9c6,0,9.3,4.1,9.3,8.9s-3.5,8.9-9.3,8.9h-8.2v11.7h-3.7L707.4,52.2z M718.9,55.5h-7.7v11.2h7.8
	c3.5,0,5.9-2.3,5.9-5.6S722.4,55.5,718.9,55.5L718.9,55.5z"/>
<path class="st1" d="M759.5,68.2h-17.3v13.6h-3.7V52.2h3.7v12.7h17.3V52.2h3.7v29.5h-3.7V68.2z"/>
<path class="st1" d="M784.7,69.2L773,52.2h4.3l9.2,13.7l9.2-13.7h4.3l-11.6,17v12.5h-3.7V69.2z"/>
<path class="st1" d="M364.1,1.8c-9.5,0-16,8.4-16,25.6c0,18.3,6.5,25.7,16.1,25.7s15.9-8.4,15.9-25.6C380.1,9.2,373.7,1.8,364.1,1.8
	z M364.1,44.3c-3.8,0-5.8-4.2-5.8-17.2c0-12.5,1.6-16.6,5.9-16.6c4,0,5.7,4.3,5.7,17.4C369.9,40.3,367.7,44.3,364.1,44.3z"/>
<polygon class="st1" points="299.5,2.8 299.5,30.6 289.2,2.8 279.5,2.8 279.5,52 288.6,52 288.6,23.8 299.1,52.3 308.5,52.3 
	308.5,2.8 "/>
<path class="st1" d="M174.4,33.5h-5.1V25h14.3v23.7c-2.8,2.9-7.7,4.4-11.8,4.4c-10.4,0-17.4-6.6-17.4-25.9
	c0-17.2,6.8-25.5,17.3-25.5c4.1,0,8.6,1.3,11.3,3.8l-2.4,8.8c-2.1-2.3-5-3.6-8.1-3.7c-5.4,0-8,5.1-8,16.9c0,11,2.2,16.6,8,16.6
	c0.7,0,1.4-0.1,2-0.4L174.4,33.5z"/>
<path class="st1" d="M334.3,33.5h-5.2V25h14.3v23.7c-2.8,2.9-7.7,4.4-11.8,4.4c-10.4,0-17.4-6.6-17.4-25.9
	c0-17.2,6.8-25.5,17.2-25.5c4.1,0,8.6,1.3,11.3,3.8l-2.4,8.8c-2.1-2.3-5-3.6-8.1-3.7c-5.5,0-8,5.1-8,16.9c0,11.1,2.2,16.6,8,16.6
	c0.7,0,1.4-0.1,2-0.4L334.3,33.5z"/>
<path class="st1" d="M208.1,52l-6-17l-2.7,0.4V52h-9.9V2.9h12.4c10.9,0,15.2,6,15.2,15.1c0,6.4-1.8,11-6.2,13.9l7.7,20.2H208.1z
	 M200.3,26.9c5-0.3,6.6-2.9,6.6-8.6c0-4.1-1.9-6.4-6.4-6.4h-1.1v15.1L200.3,26.9z"/>
<path class="st1" d="M222.5,52V2.9l22.6-0.1v8.8h-12.8V23h9.8v8.7h-9.8v11.6h12.8V52H222.5z"/>
<path class="st1" d="M250.9,52V2.9l22.7-0.1v8.8h-12.8V23h9.7v8.7h-9.8v11.6h12.9V52H250.9z"/>
<path class="st1" d="M49.9,1.8c-9.5,0-16,8.4-16,25.6c0,18.3,6.5,25.7,16.1,25.7s16-8.4,16-25.6C65.9,9.2,59.4,1.8,49.9,1.8z
	 M49.9,44.3c-3.8,0-5.8-4.2-5.8-17.2c0-12.5,1.6-16.6,5.9-16.6c4,0,5.7,4.3,5.7,17.4C55.7,40.3,53.5,44.3,49.9,44.3z"/>
<polygon class="st1" points="90.4,22.9 81.4,22.9 81.4,2.9 71.6,2.9 71.6,52 81.4,52 81.4,31.7 90.4,31.7 90.4,52 100.2,52 
	100.2,2.9 90.4,2.9 "/>
<polygon class="st1" points="127,2.8 127,30.6 116.7,2.8 107,2.8 107,52 116.1,52 116.1,23.8 126.6,52.3 136,52.3 136,2.8 "/>
<path class="st1" d="M18.5,39.2c0,4.4-1.8,4.9-3.7,4.9c-1.7,0-4.4-2.1-5.4-7.4C6.3,37.8,3.5,38.7,0,40c3.6,12.6,12,13.1,15.1,13.1
	c9.5,0,13.3-5.7,13.3-17.1V3h-9.9V39.2z"/>
</svg>
