<svg xmlns="http://www.w3.org/2000/svg" width="20" height="51"><g fill="currentColor" fill-rule="evenodd"><path d="M14.82 44.668l-.36-.428a.455.455 0 0 0-.722 0l-3.751 4.403-3.762-4.47a.455.455 0 0 0-.721 0l-.361.428a.69.69 0 0 0 0 .857l4.478 5.323a.455.455 0 0 0 .722 0l4.478-5.256a.69.69 0 0 0 0-.857z"/><path d="M14.82 38.668l-.36-.428a.455.455 0 0 0-.722 0l-3.751 4.403-3.762-4.47a.455.455 0 0 0-.721 0l-.361.428a.69.69 0 0 0 0 .857l4.478 5.323a.455.455 0 0 0 .722 0l4.478-5.255a.69.69 0 0 0 0-.858z" opacity=".44"/><g fill-rule="nonzero"><path d="M10 2a8 8 0 0 0-8 8v11a8 8 0 0 0 8 8 8 8 0 0 0 8-8V10a8 8 0 0 0-8-8zm0-2c5.523 0 10 4.477 10 10v11c0 5.523-4.477 10-10 10S0 26.523 0 21V10C0 4.477 4.477 0 10 0z"/><path d="M10 7.292c.247 0 .461-.21.461-.487A.475.475 0 0 0 10 6.317a.475.475 0 0 0-.462.488c0 .277.214.487.462.487zm0-2c.85 0 1.538.678 1.538 1.513 0 .835-.688 1.512-1.538 1.512-.85 0-1.539-.677-1.539-1.512S9.151 5.292 10 5.292z"/></g></g></svg>